<?xml version="1.0" standalone="no"?>
<!DOCTYPE svg PUBLIC "-//W3C//DTD SVG 20010904//EN"
 "http://www.w3.org/TR/2001/REC-SVG-20010904/DTD/svg10.dtd">
<svg version="1.0" xmlns="http://www.w3.org/2000/svg"
 width="679.000000pt" height="679.000000pt" viewBox="0 0 679.000000 679.000000"
 preserveAspectRatio="xMidYMid meet">
<metadata>
Created by potrace 1.14, written by Peter Selinger 2001-2017
</metadata>
<g transform="translate(0.000000,679.000000) scale(0.100000,-0.100000)"
fill="#000000" stroke="none">
<path d="M2050 6717 c-91 -32 -79 -181 30 -368 123 -210 412 -522 602 -647 58
-39 110 -77 113 -83 6 -8 -7 -9 -46 -5 -125 14 -461 18 -542 7 -159 -23 -347
-89 -405 -144 -56 -52 -67 -118 -27 -165 55 -66 222 -109 510 -131 397 -31
456 -32 611 -14 82 9 182 17 223 18 l74 0 62 -118 c76 -144 151 -315 142 -324
-4 -3 -42 10 -84 30 -169 78 -257 100 -470 119 -287 25 -555 -28 -660 -132
-28 -28 -33 -39 -33 -80 0 -43 4 -51 36 -80 78 -68 221 -107 620 -171 173 -28
233 -33 459 -38 l259 -6 22 -66 c25 -75 69 -284 79 -377 l7 -64 -32 17 c-18 9
-57 33 -88 52 -195 125 -450 203 -717 220 -109 6 -244 -8 -320 -33 -65 -23
-125 -81 -125 -123 0 -105 125 -178 520 -304 326 -105 494 -144 697 -162 113
-11 108 3 111 -254 2 -159 0 -221 -8 -221 -6 0 -62 27 -124 60 -125 67 -307
130 -442 155 -141 26 -391 31 -494 10 -141 -28 -208 -66 -236 -132 -39 -90 39
-160 256 -231 288 -94 596 -155 895 -177 114 -9 125 -15 125 -66 0 -78 -53
-426 -96 -629 -14 -63 -34 -162 -45 -220 -11 -58 -22 -113 -25 -122 -5 -17
-41 -18 -552 -19 -301 -1 -558 -4 -572 -8 l-25 -7 -3 -189 c-1 -105 0 -200 3
-212 3 -15 23 -28 67 -45 53 -20 63 -28 74 -60 12 -37 116 -542 174 -848 37
-196 45 -226 68 -235 9 -4 341 -6 737 -6 832 2 742 -13 769 123 9 46 46 230
81 410 76 384 110 543 123 579 8 20 23 29 70 42 82 23 84 30 80 255 -2 99 -7
184 -11 189 -5 4 -224 9 -488 11 -331 2 -479 6 -479 14 0 5 19 87 41 180 33
136 47 176 68 199 14 15 80 59 146 97 176 100 403 257 507 350 29 26 97 83
150 126 109 87 177 170 239 293 36 70 42 91 43 147 1 55 -2 68 -23 90 -22 23
-32 26 -98 26 -210 0 -601 -229 -795 -465 -56 -69 -91 -96 -106 -81 -10 11 17
118 35 139 10 11 59 51 108 89 223 171 331 279 643 646 171 201 233 315 212
393 -6 21 -15 41 -21 45 -50 31 -187 19 -283 -25 -178 -80 -411 -278 -551
-465 -43 -59 -82 -106 -87 -106 -14 0 -26 43 -33 117 -10 99 4 123 167 285
185 185 306 349 535 728 132 217 159 318 104 390 -17 23 -25 25 -87 24 -82 0
-136 -24 -247 -108 -84 -64 -290 -269 -351 -350 -23 -31 -73 -113 -111 -182
-59 -110 -70 -124 -82 -111 -23 23 -73 215 -73 281 0 57 2 61 48 110 119 127
306 430 467 757 136 278 169 404 125 476 -35 58 -131 58 -227 2 -80 -47 -256
-225 -329 -334 -141 -208 -195 -316 -233 -465 -11 -46 -23 -85 -25 -87 -6 -6
-62 95 -85 155 -29 72 -27 87 18 163 35 62 86 163 167 335 67 143 229 603 252
719 34 165 24 252 -32 286 -43 26 -69 24 -137 -13 -117 -61 -256 -241 -370
-473 -75 -154 -104 -248 -131 -415 -12 -74 -24 -137 -26 -140 -6 -8 -42 40
-68 91 -12 26 -42 97 -65 160 -96 262 -169 381 -333 544 -184 185 -338 306
-460 361 -67 30 -113 36 -156 21z"/>
</g>
</svg>
